<svg width="144" height="94" viewBox="0 0 144 94" fill="none" xmlns="http://www.w3.org/2000/svg">
<g id="Group 439">
<path id="Rectangle 57" d="M16.2808 23.0952C16.2808 11.8813 25.3714 2.79065 36.5853 2.79065H115.219C126.12 2.79065 132.013 15.5661 124.936 23.858C124.474 24.3998 123.967 24.9019 123.421 25.3591L122.74 25.9294C119.134 28.9493 114.701 30.8113 110.02 31.272L98.6962 32.3864H78.873C69.9027 32.3864 61.1674 35.254 53.9424 40.5705C51.8573 42.1048 49.9183 43.8283 48.15 45.7191L42.729 51.5159C42.1332 52.153 41.5961 52.8426 41.1243 53.5763C33.8405 64.9029 16.2808 59.7441 16.2808 46.2776V23.0952Z" stroke="white"/>
<path id="Rectangle 58" d="M127.719 70.8156C127.719 82.0295 118.629 91.1201 107.415 91.1201H28.7808C17.8796 91.1201 11.9872 78.3447 19.0639 70.0527C19.5262 69.511 20.033 69.0089 20.579 68.5517L21.26 67.9813C24.8662 64.9614 29.2993 63.0995 33.9803 62.6388L45.3038 61.5244H65.127C74.0973 61.5244 82.8326 58.6568 90.0576 53.3403C92.1427 51.806 94.0817 50.0824 95.85 48.1916L101.271 42.3948C101.867 41.7577 102.404 41.0682 102.876 40.3345C110.16 29.0079 127.719 34.1667 127.719 47.6331V70.8156Z" stroke="white"/>
</g>
</svg>
