<svg width="50" height="50" viewBox="0 0 50 50" fill="none" xmlns="http://www.w3.org/2000/svg">
<g id="Instagram">
<circle id="Ellipse 13" opacity="0.4" cx="25" cy="25" r="24.5" stroke="white"/>
<g id="Group 348">
<path id="Vector" d="M29.1667 16.6665H20.8334C18.5322 16.6665 16.6667 18.532 16.6667 20.8332V29.1665C16.6667 31.4677 18.5322 33.3332 20.8334 33.3332H29.1667C31.4679 33.3332 33.3334 31.4677 33.3334 29.1665V20.8332C33.3334 18.532 31.4679 16.6665 29.1667 16.6665Z" stroke="white" stroke-linecap="round" stroke-linejoin="round"/>
<path id="Vector_2" d="M28.3323 24.4753C28.4351 25.1688 28.3167 25.8771 27.9937 26.4994C27.6708 27.1218 27.1599 27.6264 26.5336 27.9416C25.9074 28.2569 25.1976 28.3666 24.5054 28.2552C23.8132 28.1438 23.1737 27.817 22.678 27.3212C22.1822 26.8255 21.8554 26.186 21.744 25.4938C21.6326 24.8015 21.7423 24.0918 22.0575 23.4656C22.3728 22.8393 22.8774 22.3284 23.4998 22.0055C24.1221 21.6825 24.8304 21.5641 25.5239 21.6669C26.2314 21.7718 26.8863 22.1015 27.392 22.6072C27.8977 23.1129 28.2274 23.7678 28.3323 24.4753Z" stroke="white" stroke-linecap="round" stroke-linejoin="round"/>
<path id="Vector_3" d="M29.5825 20.4168H29.5912" stroke="white" stroke-linecap="round" stroke-linejoin="round"/>
</g>
</g>
</svg>
