<svg width="50" height="50" viewBox="0 0 50 50" fill="none" xmlns="http://www.w3.org/2000/svg">
<g id="Linkdin">
<circle id="Ellipse 14" opacity="0.4" cx="25" cy="25" r="24.5" stroke="white"/>
<g id="Group 347">
<path id="Vector" d="M28.3341 21.6669C29.6602 21.6669 30.932 22.1937 31.8696 23.1314C32.8073 24.0691 33.3341 25.3408 33.3341 26.6669V32.5003H30.0008V26.6669C30.0008 26.2249 29.8252 25.801 29.5126 25.4884C29.2001 25.1759 28.7761 25.0003 28.3341 25.0003C27.8921 25.0003 27.4682 25.1759 27.1556 25.4884C26.843 25.801 26.6674 26.2249 26.6674 26.6669V32.5003H23.3341V26.6669C23.3341 25.3408 23.8609 24.0691 24.7986 23.1314C25.7363 22.1937 27.008 21.6669 28.3341 21.6669Z" stroke="white" stroke-linecap="round" stroke-linejoin="round"/>
<path id="Vector_2" d="M20.0011 22.4998H16.6677V32.4998H20.0011V22.4998Z" stroke="white" stroke-linecap="round" stroke-linejoin="round"/>
<path id="Vector_3" d="M18.3344 19.9998C19.2549 19.9998 20.0011 19.2536 20.0011 18.3332C20.0011 17.4127 19.2549 16.6665 18.3344 16.6665C17.4139 16.6665 16.6677 17.4127 16.6677 18.3332C16.6677 19.2536 17.4139 19.9998 18.3344 19.9998Z" stroke="white" stroke-linecap="round" stroke-linejoin="round"/>
</g>
</g>
</svg>
