<svg width="50" height="50" viewBox="0 0 50 50" fill="none" xmlns="http://www.w3.org/2000/svg">
<g id="Twitter">
<circle id="Ellipse 11" opacity="0.4" cx="25" cy="25" r="24.5" stroke="white"/>
<path id="Vector" d="M33.3333 18.3417C32.5353 18.9046 31.6518 19.3351 30.7167 19.6167C30.2148 19.0396 29.5478 18.6306 28.8059 18.445C28.0639 18.2593 27.2829 18.306 26.5684 18.5787C25.8539 18.8515 25.2404 19.337 24.8108 19.9698C24.3813 20.6026 24.1564 21.352 24.1667 22.1167V22.95C22.7022 22.988 21.2511 22.6632 19.9425 22.0046C18.634 21.3459 17.5086 20.3739 16.6667 19.175C16.6667 19.175 13.3333 26.675 20.8333 30.0084C19.1171 31.1733 17.0726 31.7575 15 31.675C22.5 35.8417 31.6667 31.675 31.6667 22.0917C31.6659 21.8596 31.6436 21.628 31.6 21.4C32.4505 20.5613 33.0507 19.5023 33.3333 18.3417V18.3417Z" stroke="white" stroke-linecap="round" stroke-linejoin="round"/>
</g>
</svg>
